<?xml version="1.0" standalone="no"?>
<!DOCTYPE svg PUBLIC "-//W3C//DTD SVG 20010904//EN"
 "http://www.w3.org/TR/2001/REC-SVG-20010904/DTD/svg10.dtd">
<svg version="1.0" xmlns="http://www.w3.org/2000/svg"
 width="640.000000pt" height="640.000000pt" viewBox="0 0 640.000000 640.000000"
 preserveAspectRatio="xMidYMid meet">
<metadata>
Created by potrace 1.11, written by Peter Selinger 2001-2013
</metadata>
<g transform="translate(0.000000,640.000000) scale(0.100000,-0.100000)"
fill="#000000" stroke="none">
<path d="M2998 6395 c-2 -2 -41 -6 -88 -9 -47 -3 -96 -9 -110 -11 -14 -3 -43
-8 -65 -10 -129 -15 -351 -66 -520 -121 -172 -56 -392 -146 -406 -167 -3 -5
-8 -8 -10 -8 -12 4 -69 -23 -69 -32 0 -6 -3 -8 -6 -4 -3 3 -28 -8 -55 -24 -28
-16 -52 -29 -54 -29 -9 0 -179 -109 -270 -174 -231 -163 -505 -424 -663 -631
-117 -154 -238 -335 -225 -335 5 0 3 -4 -3 -8 -29 -20 -200 -360 -234 -467 -7
-22 -16 -44 -20 -50 -11 -16 -97 -296 -107 -349 -2 -11 -10 -45 -17 -75 -8
-31 -17 -72 -20 -91 -3 -19 -8 -44 -10 -56 -2 -12 -7 -45 -11 -74 -4 -29 -9
-62 -11 -73 -25 -131 -25 -655 0 -794 2 -10 6 -40 10 -68 29 -215 148 -647
206 -747 5 -10 10 -22 10 -27 0 -13 120 -259 167 -341 91 -161 256 -394 371
-524 79 -88 281 -286 362 -353 105 -87 289 -220 367 -264 32 -18 60 -35 63
-38 13 -15 254 -138 360 -183 308 -132 643 -216 975 -245 112 -10 476 -10 570
-1 39 4 88 9 110 12 33 3 121 17 255 41 14 3 79 18 145 35 553 142 1046 423
1450 825 157 156 195 198 299 335 214 282 380 595 490 925 26 77 48 147 50
155 1 8 8 33 14 55 6 22 13 51 16 65 3 14 8 36 11 50 9 38 34 180 41 230 3 25
8 54 10 65 25 129 25 655 0 780 -2 11 -7 47 -11 80 -9 83 -51 279 -87 410
-238 861 -873 1616 -1692 2009 -209 100 -487 199 -655 231 -11 2 -25 6 -29 9
-4 2 -28 7 -52 11 -25 3 -52 8 -60 10 -8 3 -33 7 -55 10 -22 2 -49 6 -60 9
-11 2 -49 7 -85 11 -36 4 -78 9 -95 12 -34 5 -492 13 -497 8z"/>
</g>
</svg>
